<svg width="80" height="24" viewBox="0 0 80 24" fill="none" xmlns="http://www.w3.org/2000/svg">
<path d="M15.7741 12.3593L13.645 2.06677C13.4956 1.46648 13.1305 0.942143 12.6194 0.593658C12.1083 0.245173 11.4869 0.0968965 10.8735 0.177078H1.02188L0.946289 0.668396C8.60583 2.5077 13.6702 6.96736 15.7741 12.3593ZM22.9297 0.403841L16.7063 16.2898L16.0638 13.8962C14.036 9.95174 10.9916 6.62031 7.24526 4.24621L12.9269 23.6596H19.6416L29.6444 0.403841H22.9297ZM32.227 0.403841L28.2586 23.71H34.5576L38.5385 0.403841H32.227ZM73.9135 0.403841H68.9751C68.2843 0.313808 67.583 0.455401 66.9812 0.806458C66.3794 1.15752 65.911 1.69822 65.6493 2.34392L56.2638 23.6848H62.9281C62.9281 23.6848 64.0116 20.8125 64.2635 20.1826H72.3892C72.5782 20.9889 73.1577 23.6596 73.1577 23.6596H79.0535L73.9135 0.403841ZM66.0902 15.4206C66.6193 14.0852 68.6098 8.90745 68.6098 8.90745C68.6098 8.90745 69.1389 7.57207 69.4539 6.69021L69.8948 8.69328L71.3562 15.4206H66.0902ZM51.338 9.73891C49.1334 8.66809 47.7728 7.93741 47.7854 6.85398C47.798 5.77056 48.9318 4.85091 51.4136 4.85091C53.0424 4.80741 54.6617 5.11236 56.163 5.74537L56.7425 6.00992L57.5992 0.970747C55.7783 0.311183 53.8541 -0.017339 51.9175 0.000704859C45.6186 0.000704859 41.2219 3.15019 41.1841 7.68545C41.1841 11.0239 44.3336 12.901 46.7398 13.9844C49.146 15.0678 50.0782 15.8615 50.0782 16.8819C50.0782 18.4441 48.1004 19.1622 46.2989 19.1622C44.2377 19.2097 42.1937 18.7785 40.3274 17.9024L39.5086 17.5244L38.6141 22.74C40.8786 23.5844 43.2774 24.0112 45.6942 23.9998C52.3585 23.9998 56.6922 20.8755 56.7425 16.0379C56.73 13.4175 55.0418 11.4018 51.338 9.73891Z" fill="#273991"/>
<path d="M13.645 2.0672C13.4956 1.46691 13.1305 0.942576 12.6194 0.594091C12.1083 0.245606 11.4869 0.0973298 10.8735 0.177511H1.02188L0.946289 0.66883C8.60583 2.52073 13.6702 6.9678 15.7741 12.3723L13.645 2.0672Z" fill="#F99F1B"/>
</svg>
