<svg width="166" height="151" viewBox="0 0 166 151" fill="none" xmlns="http://www.w3.org/2000/svg">
<path d="M90.634 129.78L115.972 145.629C128.755 153.631 145.387 151.607 155.886 140.785L156.224 140.433C168.517 127.756 168.21 107.508 155.534 95.2146C144.559 84.5614 127.56 83.1819 115.006 91.919L90.1282 109.225C82.8779 114.268 83.1384 125.089 90.634 129.78Z" fill="#FF0000"/>
<path d="M35.1284 86.1848L32.7679 71.0711C31.5876 63.453 25.2264 57.6895 17.5316 57.2604H17.2864C8.25799 56.7392 0.532523 63.6369 0.02669 72.6499C-0.41783 80.4673 4.73246 87.503 12.32 89.4344L27.3417 93.2664C31.7256 94.3854 35.8182 90.6606 35.1284 86.1848Z" fill="#FF0000"/>
<path d="M77.0063 99.783L109.134 77.3884C125.352 66.0914 131.468 44.9997 123.804 26.7744L123.558 26.192C114.591 4.85503 90.0354 -5.18498 68.6831 3.78206C50.1971 11.5535 39.8045 31.3116 43.8819 50.9471L51.9599 89.8349C54.3205 101.178 67.4874 106.42 76.991 99.7983L77.0063 99.783Z" fill="#FF0000"/>
<mask id="mask0_0_1028" style="mask-type:luminance" maskUnits="userSpaceOnUse" x="72" y="72" width="17" height="15">
<path d="M72.959 72.25H88.096V86.2226H72.959V72.25Z" fill="white"/>
</mask>
<g mask="url(#mask0_0_1028)">
<mask id="mask1_0_1028" style="mask-type:luminance" maskUnits="userSpaceOnUse" x="34" y="0" width="94" height="105">
<path d="M66.173 0.735962L127.631 25.7929L95.651 104.234L34.1934 79.1772L66.173 0.735962Z" fill="white"/>
</mask>
<g mask="url(#mask1_0_1028)">
<mask id="mask2_0_1028" style="mask-type:luminance" maskUnits="userSpaceOnUse" x="34" y="0" width="94" height="105">
<path d="M66.173 0.735962L127.631 25.7929L95.651 104.234L34.1934 79.1772L66.173 0.735962Z" fill="white"/>
</mask>
<g mask="url(#mask2_0_1028)">
<path d="M83.8298 82.4066C82.4561 84.3806 79.809 85.1675 77.5166 84.085C75.1742 82.9752 74.0462 80.2234 74.9331 77.79C75.9201 75.0837 78.9448 73.7556 81.592 74.8336C83.8207 75.7432 85.0533 78.0675 84.6712 80.3507C84.6075 80.7101 84.5075 81.0694 84.3619 81.4242C84.2164 81.7789 84.039 82.1064 83.8298 82.4066ZM87.7141 81.9245C87.6049 81.6561 87.3911 81.4333 87.1046 81.315L86.0084 80.8647C86.677 77.7445 84.9487 74.497 81.7875 73.4008C78.6719 72.3229 75.2015 73.8011 73.8142 76.7939C72.2541 80.1643 73.837 84.1168 77.2392 85.5041C80.1911 86.7048 83.5068 85.5768 85.1488 82.9706L86.2449 83.4209C86.8226 83.6529 87.4821 83.3754 87.7186 82.7932C87.8369 82.5021 87.8278 82.1928 87.7141 81.9245Z" fill="white"/>
</g>
</g>
</g>
<mask id="mask3_0_1028" style="mask-type:luminance" maskUnits="userSpaceOnUse" x="52" y="78" width="30" height="16">
<path d="M52 78.363H81.1096V93.5H52V78.363Z" fill="white"/>
</mask>
<g mask="url(#mask3_0_1028)">
<mask id="mask4_0_1028" style="mask-type:luminance" maskUnits="userSpaceOnUse" x="34" y="-2" width="94" height="105">
<path d="M66.1727 -1.30164L127.63 23.7554L95.6507 102.197L34.1931 77.1396L66.1727 -1.30164Z" fill="white"/>
</mask>
<g mask="url(#mask4_0_1028)">
<mask id="mask5_0_1028" style="mask-type:luminance" maskUnits="userSpaceOnUse" x="34" y="-2" width="94" height="105">
<path d="M66.1727 -1.30164L127.63 23.7554L95.6507 102.197L34.1931 77.1396L66.1727 -1.30164Z" fill="white"/>
</mask>
<g mask="url(#mask5_0_1028)">
<path d="M75.0965 89.2383C71.8626 87.5282 70.157 81.5516 67.7418 83.2163C67.6599 83.2709 67.5417 83.2254 67.5235 83.1253C66.964 80.2508 61.5651 83.33 58.0583 82.293C56.7939 81.92 54.2331 80.6465 53.3962 78.8135C53.328 78.6679 53.1142 78.7225 53.1233 78.8817C53.378 82.998 56.5255 86.482 60.7646 87.0233C62.3656 87.2234 64.7399 87.2962 66.2226 86.3274C66.3045 86.2774 66.4137 86.3183 66.4364 86.4184C66.8185 88.1422 68.5651 89.7523 69.8522 90.7257C73.2635 93.3046 77.9483 93.0135 81.0094 90.2481C81.1231 90.1435 81.0094 89.9524 80.8593 90.0116C78.9808 90.7348 76.2609 89.8569 75.0965 89.2383Z" fill="white"/>
</g>
</g>
</g>
<mask id="mask6_0_1028" style="mask-type:luminance" maskUnits="userSpaceOnUse" x="56" y="8" width="66" height="66">
<path d="M56.6577 8.5H121.863V73.7055H56.6577V8.5Z" fill="white"/>
</mask>
<g mask="url(#mask6_0_1028)">
<mask id="mask7_0_1028" style="mask-type:luminance" maskUnits="userSpaceOnUse" x="34" y="-2" width="94" height="105">
<path d="M66.173 -1.30164L127.631 23.7554L95.651 102.197L34.1934 77.1396L66.173 -1.30164Z" fill="white"/>
</mask>
<g mask="url(#mask7_0_1028)">
<mask id="mask8_0_1028" style="mask-type:luminance" maskUnits="userSpaceOnUse" x="34" y="-2" width="94" height="105">
<path d="M66.173 -1.30164L127.631 23.7554L95.651 102.197L34.1934 77.1396L66.173 -1.30164Z" fill="white"/>
</mask>
<g mask="url(#mask8_0_1028)">
<mask id="mask9_0_1028" style="mask-type:luminance" maskUnits="userSpaceOnUse" x="43" y="-2" width="85" height="81">
<path d="M66.1822 -1.29712L127.822 23.8326L105.353 78.9453L43.7178 53.8155L66.1822 -1.29712Z" fill="white"/>
</mask>
<g mask="url(#mask9_0_1028)">
<mask id="mask10_0_1028" style="mask-type:luminance" maskUnits="userSpaceOnUse" x="43" y="-2" width="85" height="81">
<path d="M66.1822 -1.29712L127.726 23.7917L105.257 78.9044L43.7178 53.8155L66.1822 -1.29712Z" fill="white"/>
</mask>
<g mask="url(#mask10_0_1028)">
<path d="M99.9308 50.5634C98.5708 52.4374 95.7372 58.3048 93.8678 62.3483L63.5392 49.9812C65.3086 45.3919 66.9687 40.5252 67.3599 37.2458C51.6725 27.0119 66.0727 5.0524 82.6242 15.8366C91.2661 10.4195 102.059 15.691 104.074 24.5968C122.75 27.8352 118.948 54.0611 99.9308 50.5634ZM92.0621 66.3736C91.1297 68.6932 90.1154 68.5841 88.8237 68.061L63.3801 57.6907C61.8382 57.0903 60.7966 56.7992 61.9655 53.9292C62.1565 53.4562 62.3521 52.9786 62.5477 52.4874L92.7489 64.7998C92.3532 65.6777 92.103 66.2599 92.0621 66.3736ZM106.726 22.5545C104.415 12.3571 92.0712 6.33049 82.1785 12.5299C63.2345 0.181089 46.7512 25.32 64.7082 37.0275C64.126 41.8942 61.115 49.7947 58.5315 56.1215C57.1943 59.4055 58.3859 59.742 60.1507 60.4288L89.2739 72.2956C90.7476 72.8959 91.912 73.0187 92.9763 70.3625C93.2083 69.6984 99.5851 55.5712 101.982 52.2736C123.751 56.2716 128.094 26.2615 106.726 22.5545Z" fill="white"/>
</g>
</g>
</g>
</g>
</g>
</svg>
